<svg id="Layer_1" data-name="Layer 1" xmlns="http://www.w3.org/2000/svg" viewBox="0 0 24 24"><path d="M22,6V22H2V6Zm2-6H0V24H24ZM18,13.36v1.28a1.65,1.65,0,0,0-1.64,1.56c0,1.19.7,3.25-3.27,3.25V18.36c2.68,0,2.16-.87,2.16-2.16A2.43,2.43,0,0,1,16.5,14a1.94,1.94,0,0,1-1.25-1.81c0-1.29.52-2.56-2.16-2.55V8.55c4,0,3.27,2.45,3.27,3.64C16.36,13,17.15,13.36,18,13.36ZM7.64,12.19c0-1.19-.7-3.64,3.27-3.64V9.64c-2.68,0-2.16,1.26-2.16,2.55A1.94,1.94,0,0,1,7.5,14a2.43,2.43,0,0,1,1.25,2.2c0,1.29-.52,2.16,2.16,2.16v1.09c-4,0-3.27-2.06-3.27-3.25A1.65,1.65,0,0,0,6,14.64V13.36C6.85,13.36,7.64,13,7.64,12.19Zm4.91,2.9v.7a1.23,1.23,0,0,1-1,1.24l-.11-.24a.76.76,0,0,0,.43-.66h-.45v-1Zm0-3.27h-1.1v1.09h1.1Z"/></svg>