<svg id="Layer_1" data-name="Layer 1" xmlns="http://www.w3.org/2000/svg" viewBox="0 0 24 24"><defs><style>.cls-1{fill-rule:evenodd;}</style></defs><path class="cls-1" d="M8,18.76c0-.7-.63-.7-.59,0S8.08,19.46,8,18.76Z"/><path class="cls-1" d="M12.14,18.2a1.12,1.12,0,0,0,0,2.24A1.12,1.12,0,0,0,12.14,18.2Z"/><path class="cls-1" d="M9.17,20.16c0,.7.63.69.59,0S9.13,19.46,9.17,20.16Z"/><path class="cls-1" d="M0,0V24H24V0ZM7,17.54a0,0,0,0,1,0,0V15.73s0,0,0,0H6.19s0,0,0,0v1.79c0,.05-.37,0-.38,0a0,0,0,0,1,0,0V15.73c0-.07-.5,0-.5-.05s0-.31,0-.29.5,0,.48,0c0-.43,0-.85.59-.82h.28c.05,0,0,.34,0,.34-.14.09-.49-.1-.49.24,0,0,0,.28,0,.27H7.33s0,0,0,0v2.11C7.37,17.57,7,17.53,7,17.54ZM7.39,15s0,0,0,0-.49,0-.46,0v-.45s.45,0,.46,0S7.38,15,7.39,15Zm-.25,3.75c-.09-1.12,1.3-1.12,1.21,0C8.44,19.88,7.05,19.88,7.14,18.76Zm.42,2.18s0,0,0,0l1.77-3s.31,0,.31,0,0,0,0,0L7.88,20.94A1.14,1.14,0,0,1,7.56,20.94Zm1.9,0c-.81.12-.81-1.78,0-1.67C10.28,19.21,10.28,21.11,9.46,21Zm2.68-.17a1.5,1.5,0,0,1,0-3A1.5,1.5,0,0,1,12.14,20.82Zm4.74,0h-3v-3h3ZM16.21,16a1.47,1.47,0,0,1,2.94,0A1.47,1.47,0,0,1,16.21,16Zm-.47-1.8a4.74,4.74,0,0,0-2.77-1c-2.41-.44-5.14-.32-7-2.11a4.47,4.47,0,0,1,.7-6.66c2.91-2.22,8.92-2,11.21,1.2a5.55,5.55,0,0,1,1,3.3c0,.11,0,.16-.13.16H15.86A.14.14,0,0,1,15.7,9a2.66,2.66,0,0,0-1.09-2.25c-1.16-1-4.49-1.14-5.74-.18a1.71,1.71,0,0,0-.43,2.69c1,.81,2.4.82,3.56,1,3.56.49,6.46.75,7.22,4Z"/></svg>