<svg id="Layer_1" data-name="Layer 1" xmlns="http://www.w3.org/2000/svg" viewBox="0 0 100.6 53"><defs><style>.cls-1{fill:#c00;}</style></defs><path class="cls-1" d="M84.44,34.66v4.42h8A4.56,4.56,0,0,0,97,34.54V32.83a4.5,4.5,0,0,0-4.53-4.53h-4V26.25h7.88V21.81H88.76a4.64,4.64,0,0,0-4.56,4.61V28a4.55,4.55,0,0,0,4.56,4.53c5.49,0-1.32,0,3.75,0v2.15m-50.78-1S46,33.22,46,27.71a5.82,5.82,0,0,0-5.16-6H31.51V39.08h4.68v-4.2l4.05,4.2h6.93l-5.44-5.49ZM39.92,30H36.19v-4H40a2,2,0,0,1,1,2,2,2,0,0,1-1.08,2Zm17.63-8.22H52.8a4.58,4.58,0,0,0-4.54,4.54V39.08H53V36h4.46v3h4.61V26.35a4.5,4.5,0,0,0-4.54-4.54Zm-.07,9.29H53V26.88s0-.95,1.49-.95h1.63c1.32,0,1.34.95,1.34.95V31.1Zm6.78-9.29h4.95V39.08H64.26Zm11.89,12.8V21.81H71.23V39.08H82.81V34.61Z"/><path class="cls-1" d="M2.13,39.08H21.39s-3.68-16.8,8.51-23.61c2.66-1.29,11.12-6.12,25,4.12.44-.36.85-.65.85-.65S43,6.28,28.93,7.7C21.83,8.33,13.1,14.79,8,23.33A42.13,42.13,0,0,0,2.13,39.08Z"/><path class="cls-1" d="M2.13,39.08H21.39s-3.68-16.8,8.51-23.61c2.66-1.29,11.12-6.12,25,4.12.44-.36.85-.65.85-.65S43,6.28,28.93,7.7C21.83,8.33,13.1,14.79,8,23.33A42.13,42.13,0,0,0,2.13,39.08Z"/><path class="cls-1" d="M2.13,39.08H21.39s-3.68-16.8,8.51-23.61c2.66-1.29,11.12-6.12,25,4.12.44-.36.85-.65.85-.65S43,6.28,28.93,7.7c-7.12.63-15.85,7.09-21,15.63A41.85,41.85,0,0,0,2.13,39.08Zm40.13-30,.1-1.63A11.61,11.61,0,0,0,40,6.58l-.1,1.6C40.7,8.45,41.48,8.75,42.26,9.06Z"/><path class="cls-1" d="M42.33,10.76l-.1,1.53a13.24,13.24,0,0,1,2.41.3l.1-1.52A17.49,17.49,0,0,0,42.33,10.76Zm-9-7.61h.25l-.49-1.49a18.86,18.86,0,0,0-2.34.15l.46,1.44A18.92,18.92,0,0,1,33.3,3.15Zm1.17,9L35,13.8A15.13,15.13,0,0,1,37.16,13l-.54-1.61a18.52,18.52,0,0,0-2.15.78ZM23.41,5.71,22.31,4c-.61.31-1.24.66-1.9,1l1.12,1.7c.63-.39,1.24-.75,1.88-1.07Zm5,11,1.17,1.76A14.51,14.51,0,0,1,31,16.71l-1.09-1.66a12.84,12.84,0,0,0-1.52,1.63Zm-3.53,7.85,2,1.56a19,19,0,0,1,.52-2.85L25.6,21.85a21.42,21.42,0,0,0-.73,2.68ZM14.19,13l-1.73-1.51c-.64.61-1.24,1.22-1.81,1.83l1.88,1.61A23.18,23.18,0,0,1,14.19,13ZM6.83,23.85,4,22.83c-.46,1-1,2.26-1.22,2.92l2.81,1C5.92,26,6.44,24.75,6.83,23.85ZM24.5,30.72a23.26,23.26,0,0,0,.3,3.08l2.92,1.05a31.14,31.14,0,0,1-.58-3.17Z"/></svg>