<svg id="Layer_1" data-name="Layer 1" xmlns="http://www.w3.org/2000/svg" viewBox="0 0 100.6 53"><defs><style>.cls-1{fill:#fff;}.cls-1,.cls-2{fill-rule:evenodd;}.cls-2{fill:#6a778f;}</style></defs><path class="cls-1" d="M21.24,0H74.29V53H21.24Z"/><path class="cls-2" d="M35.34,36.66v-.55H35a14,14,0,0,1-2.59-.18A9.84,9.84,0,0,1,30,35.24,8.05,8.05,0,0,1,27,33a2.56,2.56,0,0,1-.54-1.37,2,2,0,0,1,1.21-2.05,3.3,3.3,0,0,1,2.06,0c1.12.24,1.89.4,2.35.51a42.64,42.64,0,0,1-4.51-10.42c-1.25-4.51-1.27-8.48.08-10.15A12.46,12.46,0,0,1,34.72,5a18.09,18.09,0,0,1,8.8.28c.44-.08.88-.14,1.33-.19a17.65,17.65,0,0,1,1.92-.11,11.06,11.06,0,0,1,3.38.44,9.64,9.64,0,0,1,2.11.92c3.79-1.28,17.62-5,16.86,10.42a60.8,60.8,0,0,1-3.71,14.48,15.92,15.92,0,0,1-2.57,4.4c-1.32,1.46-2.84,2.12-4.52,1.5A4.65,4.65,0,0,1,57,36.3a2,2,0,0,1-.25.26,4.82,4.82,0,0,1-2,1,8.83,8.83,0,0,1-3.58.19,7.39,7.39,0,0,1-1.66-.5v1.79a27.62,27.62,0,0,1-.18,2.77,11.18,11.18,0,0,1-.51,2.43c0,.1-.07.19-.1.29-.56,1.73-1.58,4.83-6.38,3.81a7,7,0,0,1-4.86-2.82c-1.13-1.65-1.91-4.3-2-8.9Z"/><path class="cls-1" d="M37.27,33.4c.11-2.33-1-2.76-1.84-3,.08-.12.19-.26.33-.43a8.4,8.4,0,0,0,1.35-2.17,8.68,8.68,0,0,1,.51-.95c1.06-1.9,3.16-5.64,2.74-8.23-.29-1.84-1.69-3-5.17-2.68v-.12A11.87,11.87,0,0,1,36,14.05,12.41,12.41,0,0,1,46.74,7.28c7.12-.12,8.43,7,8.65,10a5.82,5.82,0,0,0-1.12-.55,9.57,9.57,0,0,0-2-.57,4.79,4.79,0,0,0-2.06.12,3,3,0,0,0-2.11,2.48C47,23.8,48,26,48.8,27.73a10.46,10.46,0,0,1,.67,1.71,9.32,9.32,0,0,1,.33,1h-.26a2.15,2.15,0,0,0-1.38.42,2.68,2.68,0,0,0-.92,1.25,3.92,3.92,0,0,0-.14,1.41v6.39a16,16,0,0,1-.44,3.71,4.53,4.53,0,0,1-1.2,1.87,3.37,3.37,0,0,1-3.14.53,5.38,5.38,0,0,1-2.85-1.33A5,5,0,0,1,38.34,42c-.14-.9-.36-2.47-.56-4-.24-1.9-.45-3.85-.51-4.51ZM54,34.53c-2.34-.49-2.58-.78-3.38-1.74a11.5,11.5,0,0,0-.87-1,.39.39,0,0,0-.27-.13,1,1,0,0,0-.56.19,1.39,1.39,0,0,0-.47.65,1,1,0,0,0,0,.87,4.49,4.49,0,0,0,3,1.91,6.24,6.24,0,0,0,2.65-.14,2.71,2.71,0,0,0,.82-.35,3.33,3.33,0,0,0-.88-.27Zm.68-4.46a5.39,5.39,0,0,0,.54-.53,6.33,6.33,0,0,0,1.64-3.68,7,7,0,0,0,0-1.58,25.47,25.47,0,0,1-.12-5.09v-.62c0-.16.17-6.49-3.5-10.15,3.29-1.06,14-3.71,13.42,8.11a56.82,56.82,0,0,1-3.51,13.63A13.82,13.82,0,0,1,61,33.87c-.63.7-1.29,1.05-1.92.82A2.92,2.92,0,0,1,58,33.82q-1.56-1.93-3.29-3.76ZM41.58,7.18A14.29,14.29,0,0,0,35,13.46a12.06,12.06,0,0,0-.9,2,3.12,3.12,0,0,0-.26,1.28v.06a11,11,0,0,0,.2,2.36,17.23,17.23,0,0,1,.2,1.9,13.78,13.78,0,0,1-.15,2.13c-.23,1.89-.48,3.89.8,6l-.07.08c0,.07-.1.12-.15.18A39.92,39.92,0,0,1,30,18.85c-1-3.81-1.22-6.91-.35-8a10,10,0,0,1,5.17-3.49A14.75,14.75,0,0,1,41.58,7.18ZM55.47,18.56v.55a27.13,27.13,0,0,0,.14,5.33,5.57,5.57,0,0,1,0,1.29,5.07,5.07,0,0,1-1.31,3,4.51,4.51,0,0,1-2.67,1.45h-.57A10.06,10.06,0,0,0,50.69,29a16.79,16.79,0,0,0-.69-1.7c-.7-1.55-1.59-3.53-.57-8.25a1.86,1.86,0,0,1,1.27-1.56,3.35,3.35,0,0,1,1.51-.07,7.28,7.28,0,0,1,1.67.48,14.23,14.23,0,0,1,1.59.71ZM51.82,18a2.42,2.42,0,0,0-1.54.21c-.22.13-.36.3-.33.5a.89.89,0,0,0,.39.52,1.19,1.19,0,0,0,.82.2h0a1.38,1.38,0,0,0,.77-.41.88.88,0,0,0,.29-.6c0-.19-.14-.35-.46-.43ZM35,17.19c2.83-.35,3.91.42,4.11,1.63.34,2.15-1.61,5.64-2.61,7.44-.21.35-.4.71-.57,1.07a5.16,5.16,0,0,1-.32.67,8.12,8.12,0,0,1-.36-4.7A16.29,16.29,0,0,0,35.44,21a17.58,17.58,0,0,0-.21-2A12.83,12.83,0,0,1,35,17.19Zm-.35,14.29.31.09c.43.13,1.13.31,1,1.79a1.2,1.2,0,0,1-.52.15,6.28,6.28,0,0,1-1.62.08A8.64,8.64,0,0,1,31,33a6.43,6.43,0,0,1-1.77-1.13c1.61.31,4,.77,5.5-.33ZM36.19,18a.75.75,0,0,0,.27.54,1.12,1.12,0,0,0,.72.39,1.09,1.09,0,0,0,.64-.13c.25-.14.44-.34.44-.53s-.08-.26-.28-.38a2.12,2.12,0,0,0-.69-.21,1.75,1.75,0,0,0-.72,0C36.36,17.79,36.21,17.9,36.19,18ZM34,30.65c-.3.27-1.26.7-4.51,0a2.25,2.25,0,0,0-1.36,0,.83.83,0,0,0-.51.86,1.43,1.43,0,0,0,.3.73,7.17,7.17,0,0,0,2.52,1.84,10.39,10.39,0,0,0,3.39.73,7.9,7.9,0,0,0,1.94-.09l.38-.1c.1.9.26,2.18.42,3.45.2,1.61.41,3.21.57,4.08a6,6,0,0,0,1.48,3.38,6.59,6.59,0,0,0,3.48,1.69,4.66,4.66,0,0,0,4.2-.79,5.58,5.58,0,0,0,1.54-2.37A15.4,15.4,0,0,0,48.33,40c.07-1.42.09-3.1.08-4.83a5.73,5.73,0,0,0,2.83,1.37,7.21,7.21,0,0,0,3.1-.2,3.62,3.62,0,0,0,1.49-.75,1.18,1.18,0,0,0,.4-.7,1,1,0,0,0-.31-.81,3.53,3.53,0,0,0-1.64-.67c-1.9-.39-2.07-.6-2.61-1.3l-.44-.51a.14.14,0,0,0,0-.09h.6a5.56,5.56,0,0,0,1.84-.7c.52.54,1.89,2,3.38,3.85a4,4,0,0,0,1.65,1.24,2.89,2.89,0,0,0,3.23-1.13,14.86,14.86,0,0,0,2.34-4.07,58.91,58.91,0,0,0,3.62-14c.72-14.6-13.53-9.89-15.79-9a9.05,9.05,0,0,0-5.35-1.45,13.6,13.6,0,0,0-3,.38l-1.13-.32-.31-.07a16,16,0,0,0-7.9.07,11.17,11.17,0,0,0-5.8,3.91c-1.13,1.44-1,5,.13,9.13A41.27,41.27,0,0,0,34,30.65Z"/></svg>