<?xml version="1.0" encoding="utf-8"?>
<!-- Generator: Adobe Illustrator 24.1.3, SVG Export Plug-In . SVG Version: 6.00 Build 0)  -->
<svg version="1.1" id="Layer_1" xmlns="http://www.w3.org/2000/svg" xmlns:xlink="http://www.w3.org/1999/xlink" x="0px" y="0px"
	 viewBox="0 0 100.6 53" style="enable-background:new 0 0 100.6 53;" xml:space="preserve">
<style type="text/css">
	.st0{fill:#131B28;}
	.st1{fill:#0868AC;}
</style>
<path class="st0" d="M43.5,24.5L43.5,24.5l-0.6,2.1L43.5,24.5z M46.7,29.1L46.7,29.1z M47.3,29.1L47.3,29.1z M46.8,32l0.7-2.6
	L46.8,32z M61.3,19.9l-1.3,6L61.3,19.9z M58,19.9l-1,4.5L58,19.9z"/>
<path class="st0" d="M61.1,19.6h-2.7c-0.2,0-0.3,0.1-0.3,0.3l-2,9c0,0.2-0.2,0.3-0.3,0.3h-1.9c-1.9,0-1.7-1.3-1.3-3.2V26l0.2-1.2
	l0.1-0.5l0.9-4.3c0-0.1,0-0.2-0.2-0.3c0,0,0,0-0.1,0h-2.8c-0.2,0-0.3,0.1-0.3,0.3l-1.3,6c-0.7,3.2-0.5,6.2,3.3,6.3h6.1
	c0.2,0,0.3-0.1,0.3-0.3l2.6-12.1C61.4,19.8,61.3,19.7,61.1,19.6C61.1,19.6,61.1,19.6,61.1,19.6L61.1,19.6z M72,29.2
	c0.1,0,0.2,0.1,0.2,0.2v0.1L72,30.8 M71.7,32.1l0.3-1.3L71.7,32.1z M71.4,32.4h-5.1H71.4z"/>
<path class="st0" d="M64.7,27.5c0-0.1,0.2-0.4,0.3-0.4h-0.3C64.6,28.7,64.7,27.6,64.7,27.5L64.7,27.5z M66.6,32.4L66.6,32.4z
	 M72.1,29.2c0.1,0,0.2,0.1,0.2,0.2v0.1L72,31 M67.9,32.4L67.9,32.4z M67.2,32.4L67.2,32.4z M67,32.4L67,32.4z M66.8,32.4L66.8,32.4z
	 M67.2,32.4L67.2,32.4z"/>
<path class="st0" d="M67.9,32.4L67.9,32.4z M71.4,32.4h-3.5H71.4z M71.7,32.1L72,31L71.7,32.1z M67,32.4L67,32.4z M66.6,32.4
	L66.6,32.4z M66.8,32.4L66.8,32.4z M26.6,27.6l0.4-1.9l-0.5,2.2l-0.5,2.2l0.4-1.9L26.6,27.6L26.6,27.6z M31.7,19.6h-3
	c-0.2,0-0.3,0.1-0.3,0.3l-0.6,2.5c0,0.1,0,0.2,0.1,0.3h3.1c0.2,0,0.3-0.1,0.3-0.3l0.6-2.5C32,19.8,31.9,19.6,31.7,19.6
	C31.8,19.6,31.8,19.6,31.7,19.6L31.7,19.6z M31.1,23.8l-0.9,4.1L31.1,23.8z M22.3,37.4h2.5H22.3z M27.5,23.8l-0.4,1.9L27.5,23.8z"/>
<path class="st0" d="M30.8,23.5h-3c-0.2,0-0.3,0.1-0.3,0.3l-0.8,3.8l-0.1,0.5L25.7,32c0,0.2-0.1,0.4-0.1,0.5S25,34.2,24,34.2h-0.9
	c-0.2,0-0.3,0.1-0.3,0.3l-0.6,2.6c0,0.1,0,0.2,0.1,0.3h0.1h2.5c2.4,0,3.6-1.3,4.4-5.1l1.8-8.4C31.1,23.7,31.1,23.6,30.8,23.5
	C30.9,23.5,30.9,23.5,30.8,23.5L30.8,23.5z M74,32.2c-0.1,0-0.2-0.1-0.2-0.2c0,0,0,0,0-0.1L76,21.3"/>
<path class="st0" d="M77.1,32l0.9-4.6L77.1,32z M73.8,32.1c0-0.1,0-0.3,0-0.4l1.1-5.1L73.8,32c0,0.1,0.1,0.2,0.2,0.3c0,0,0,0,0,0
	h0.3C74.1,32.2,73.8,32.2,73.8,32.1L73.8,32.1z"/>
<path class="st0" d="M77,32.2c-0.1,0-0.3,0.1-0.4,0.1h0.3c0.2,0,0.3-0.1,0.3-0.3v-0.3C77.1,31.9,77.1,32,77,32.2L77,32.2z
	 M77.6,29.7l0.4-2L77.6,29.7z"/>
<path class="st0" d="M86.6,22l0.1,0.5c0,0.1,0,0.2-0.2,0.3c0,0,0,0-0.1,0 M77.2,31.7l0.4-2L77.2,31.7z M86.5,21.5l0.1,0.5L86.5,21.5
	z M78,27.7l0.1-0.5l0.4-2l-0.5,2.3L78,27.7L78,27.7z M76.1,21.1l-1.2,5.5L76.1,21.1L76.1,21.1z"/>
<path class="st0" d="M86.7,22.5L86.6,22l-0.2-0.8c-0.2-1-1-1.5-2.5-1.5h-7.2c-0.2,0-0.3,0.1-0.3,0.3l-0.1,0.5L76,21.3l-2.3,10.4
	c0,0.1,0,0.3,0,0.4c0,0.1,0.3,0.1,0.5,0.1h2.3c0.1,0,0.3,0,0.4-0.1c0.1-0.1,0.2-0.3,0.2-0.5l0.9-4.3l0.9-4.3c0-0.2,0.2-0.3,0.3-0.3
	h7.2C86.6,22.8,86.7,22.7,86.7,22.5C86.7,22.6,86.7,22.6,86.7,22.5L86.7,22.5z M96,17.8h-2.8c-0.2,0-0.3,0.1-0.4,0.2l-5.1,7.5
	c-0.1,0.1-0.2,0.1-0.2,0L87,23.9c0-0.2-0.2-0.3-0.3-0.3h-3.3c-0.1,0-0.2,0.1-0.2,0.2c0,0,0,0.1,0,0.1l1.5,5.1c0,0.2,0,0.4,0,0.5
	L84,32c0,0.1,0,0.2,0.1,0.3c0,0,0.1,0,0.1,0h3.2c0.2,0,0.3-0.1,0.4-0.3l0.6-2.5c0.1-0.2,0.1-0.3,0.2-0.5l8.3-11
	c0.1-0.1,0.1-0.2-0.1-0.2L96,17.8L96,17.8z M70,24.2c0,0.2-0.2,0.3-0.3,0.3h-4.2c-0.1,0-0.2-0.1-0.2-0.2l0,0v-0.1
	c0.4-1.2,1.6-1.9,2.8-1.8C69.8,22.5,70.2,23.3,70,24.2z M68.8,19.5c-5.3,0-6.6,3.2-7.3,6.5c-0.7,3.3-0.7,6.4,4.9,6.4h1.5h3.5
	c0.2,0,0.3-0.1,0.3-0.3l0.5-2.6c0-0.1,0-0.2-0.2-0.3h-5c-2,0-2.6-0.5-2.3-2.1h7.9c0.1,0,0.2-0.1,0.3-0.2c0,0,0-0.1,0-0.1
	C74.1,22.5,73.8,19.5,68.8,19.5L68.8,19.5z M43.6,24.2l-0.1,0.3L43,26.6l-0.6,2.1c0,0.2-0.2,0.3-0.4,0.3h-3.2c-2.4,0-3-1.9-2.4-4.6
	s1.7-4.6,4.1-4.8C43.8,19.3,44.4,21.6,43.6,24.2L43.6,24.2z M45.8,28.8c0.8-1.8,1.4-3.8,1.8-5.7c0.5-2.8-0.9-6.9-6.4-6.9
	s-7.7,3.9-8.6,8.1s0.3,8,5.6,7.9h8.2c0.2,0,0.3-0.1,0.3-0.3l0.7-2.6c0-0.1,0-0.2-0.1-0.3c0,0-0.1,0-0.1,0h-1.4
	C45.8,29.1,45.8,29,45.8,28.8C45.7,28.9,45.7,28.9,45.8,28.8C45.7,28.9,45.7,28.8,45.8,28.8L45.8,28.8z"/>
<path class="st0" d="M72.4,26.4c0,0.1-0.1,0.2-0.2,0.2c-0.1,0-0.2-0.1-0.2-0.2c0-0.1,0.1-0.2,0.2-0.2C72.4,26.2,72.4,26.3,72.4,26.4
	C72.4,26.4,72.4,26.4,72.4,26.4z"/>
<path class="st1" d="M4.6,21.7c-1.4,2.2-1.4,4.9-0.2,7.2l0.1,0.3v0.1l0.1,0.1l0.1,0.2l0.1,0.1L5,29.9C5,30,5.1,30.1,5.2,30.2v0.1
	l0.2,0.2v0.1l0.2,0.2l0.1,0.1L5.8,31l0,0c0.1,0.1,0.1,0.2,0.2,0.2l0.1,0.1l0.2,0.2l0.1,0.1l0.2,0.2l0,0L6.8,32L6.8,32L7,32.2
	l0.1,0.1l0.2,0.1h0.1l0,0l0.2,0.1l0.1,0.1L8,32.8h0.1l0.2,0.1L8.4,33L8.6,33l0,0h0.1l0.3,0.1H9l0.3,0.1h0.1l0.3,0.1l0,0l0.3,0.1h0.1
	l0.3,0.1c7.2,1.3,9.3-4.3,9.3-4.3c-1.8,2.3-4.9,2.9-7.8,2.3l-0.3-0.1h-0.1l-0.3-0.1l0,0l-0.3-0.1h-0.1l-0.3-0.1h-0.1L10.1,31h-0.1
	l-0.2-0.1l-0.1-0.1l-0.2-0.1H9.4l0-0.1H9.3l-0.2-0.1H9l-0.3-0.2L8.5,30L8.4,30l-0.2-0.2l0,0l-0.2-0.2l-0.1-0.1l-0.2-0.2l-0.1-0.1
	L7.4,29l0,0c-0.1-0.1-0.1-0.2-0.2-0.2l0-0.2L7,28.4l-0.1-0.1l-0.2-0.2c-1.8-2.3-2.1-5.3-0.9-7.9 M9.3,19.9c-1,1.6-1.1,3.6-0.2,5.3
	c0.1,0.3,0.3,0.5,0.5,0.8c0.2,0.3,0.3,0.5,0.6,0.7c0.1,0.1,0.2,0.2,0.2,0.2l0.1,0.1l0.2,0.2l0,0l0.3,0.2H11l0.3,0.2l0,0l0.1,0.1h0.1
	l0.2,0.1l0,0L12,28H12l0.1,0.1l0,0l0.3,0.1h0.1l0.2,0.1h0.1l0.2,0.1h0.1c0.1,0,0.2,0.1,0.3,0.1c5.6,0.9,6.8-3.4,6.8-3.4
	c-1.4,1.8-3.7,2.5-5.8,1.8l-0.3-0.1h-0.1l-0.2-0.1h-0.1l-0.2,0.1h-0.1l-0.3-0.1l-0.1-0.1H13l-0.2-0.1l0,0l-0.2-0.1h-0.1l-0.1-0.1
	L12.1,26H12c-1.1-0.8-1.8-2-2.3-3.2c-0.4-1.3-0.3-2.8,0.4-4 M13.1,18.7c-0.6,0.9-0.7,2.1-0.3,3.1c0.5,1.1,1.4,1.9,2.5,2.4h0.1h0.1
	l0.2,0.1c1.7,0.5,3.4-0.3,4.1-1.9c-0.8,1-2.2,1.4-3.5,0.9l-0.4-0.1L15.6,23c-0.3-0.1-0.5-0.3-0.8-0.5c-1.5-1-2-2.9-1.3-4.5"/>
</svg>
