<?xml version="1.0" encoding="utf-8"?>
<!-- Generator: Adobe Illustrator 24.1.3, SVG Export Plug-In . SVG Version: 6.00 Build 0)  -->
<svg version="1.1" id="Layer_1" xmlns="http://www.w3.org/2000/svg" xmlns:xlink="http://www.w3.org/1999/xlink" x="0px" y="0px"
	 viewBox="0 0 100.6 53" style="enable-background:new 0 0 100.6 53;" xml:space="preserve">
<style type="text/css">
	.st0{fill:#563D7C;}
	.st1{fill:#FFFFFF;}
</style>
<path class="st0" d="M27.9,45.1c0,3.6,2.6,6.5,5.8,6.5h33.2c3.2,0,5.8-2.9,5.8-6.5V7.9c0-3.6-2.6-6.5-5.8-6.5H33.7
	c-3.2,0-5.8,2.9-5.8,6.5V45.1z"/>
<path class="st1" d="M46.5,23.6v-7.1H52c0.5,0,1,0.1,1.5,0.2c0.5,0.1,0.9,0.3,1.3,0.5c0.4,0.3,0.7,0.6,0.9,1.1
	c0.2,0.5,0.4,1.1,0.3,1.7c0.1,1-0.3,2.1-1.1,2.8c-0.7,0.6-1.7,0.9-2.6,0.9L46.5,23.6z M40.5,11.3v30.3h13.1c1.2,0,2.4-0.2,3.6-0.5
	c1.1-0.3,2.2-0.9,3.1-1.6c0.9-0.7,1.7-1.7,2.2-2.7c0.6-1.2,0.9-2.6,0.8-4c0.1-1.7-0.4-3.4-1.2-4.9c-0.9-1.4-2.2-2.4-3.7-2.8
	c1.1-0.6,2-1.4,2.7-2.5c0.7-1.2,1-2.5,0.9-3.8c0-1.2-0.2-2.4-0.6-3.6c-0.4-0.9-1-1.7-1.8-2.3c-0.8-0.6-1.7-1.1-2.7-1.3
	c-1.2-0.3-2.3-0.4-3.5-0.4H40.5z M46.5,36.5v-8.4h6.5c1.1-0.1,2.2,0.3,3.1,1c0.9,0.9,1.3,2.1,1.2,3.3c0,0.7-0.1,1.3-0.4,1.9
	c-0.2,0.5-0.5,0.9-0.9,1.3c-0.4,0.3-0.9,0.5-1.4,0.6c-0.5,0.1-1.1,0.2-1.7,0.2L46.5,36.5z"/>
</svg>
