<?xml version="1.0" encoding="utf-8"?>
<!-- Generator: Adobe Illustrator 24.1.3, SVG Export Plug-In . SVG Version: 6.00 Build 0)  -->
<svg version="1.1" id="Layer_1" xmlns="http://www.w3.org/2000/svg" xmlns:xlink="http://www.w3.org/1999/xlink" x="0px" y="0px"
	 viewBox="0 0 100.6 53" style="enable-background:new 0 0 100.6 53;" xml:space="preserve">
<style type="text/css">
	.st0{fill:#FFFFFF;}
	.st1{fill:#E44D26;}
	.st2{fill:#F16529;}
	.st3{fill:#EBEBEB;}
</style>
<path class="st0" d="M47.2,22.1v5.2h6.3l-0.6,6.6l-5.7,1.5v5.3l10.5-2.9l1.4-15.8H47.2z M47.2,11.8v5.1h12.4l0.5-5.1H47.2z"/>
<path class="st1" d="M67.2,12l-3.1,34.5l-13.8,3.8l-13.8-3.8L33.4,12H67.2z"/>
<path class="st2" d="M50.3,47.4l11.2-3.1l2.6-29.4H50.3V47.4z"/>
<path class="st3" d="M44.3,23.3h6v-4.2H39.7l0.1,1.1l1,11.6h9.5v-4.2h-5.5L44.3,23.3z M45.2,34H41l0.6,6.6l8.7,2.4l0,0v-4.4l0,0
	l-4.7-1.3L45.2,34z"/>
<path d="M36.5,2.7h2.2v2.1h2V2.7h2.1v6.4h-2.2V7h-2v2.1h-2.1V2.7z M45.6,4.8h-1.9V2.7h5.9v2.1h-1.9v4.3h-2.1
	C45.6,9.1,45.6,4.8,45.6,4.8z M50.6,2.7h2.2l1.3,2.2l1.4-2.2h2.2v6.4h-2.1V5.9l-1.5,2.3l0,0l-1.5-2.3v3.2h-2.1L50.6,2.7z M58.9,2.7
	h2.2V7h3v2.1h-5.2L58.9,2.7L58.9,2.7z"/>
<path class="st0" d="M50.2,31.9h5.2L55,37.3l-4.7,1.3V43l8.7-2.4l0.1-0.7l1-11.1l0.1-1.1h-9.8V31.9L50.2,31.9z M50.2,23.3h10.2
	l0.1-1l0.2-2.1l0.1-1.1H50.2V23.3z"/>
</svg>