<svg id="Layer_1" data-name="Layer 1" xmlns="http://www.w3.org/2000/svg" viewBox="0 0 47.04 47.04"><defs><style>.cls-1{fill:#fff;}.cls-1,.cls-2{fill-rule:evenodd;}.cls-2{fill:#6a778f;}</style></defs><path class="cls-1" d="M25.24,2.82H72.29v47H25.24Z" transform="translate(-25.24 -2.82)"/><path class="cls-2" d="M37.75,35.33c0-.06,0-.15,0-.29l0-.2-.27,0h-.07a11.52,11.52,0,0,1-2.3-.16,8.47,8.47,0,0,1-2.11-.61,7.22,7.22,0,0,1-2.66-2,2.39,2.39,0,0,1-.48-1.22,1.76,1.76,0,0,1,1.08-1.82A2.92,2.92,0,0,1,32.76,29c1,.21,1.68.35,2.09.45a37.66,37.66,0,0,1-4-9.24c-1.11-4-1.13-7.52.07-9a11,11,0,0,1,6.28-4A16,16,0,0,1,45,7.46c.39-.07.78-.13,1.18-.17a16.15,16.15,0,0,1,1.7-.1,10,10,0,0,1,3,.39,8.64,8.64,0,0,1,1.87.82C56.11,7.26,68.38,4,67.7,17.64a53.63,53.63,0,0,1-3.29,12.84,13.93,13.93,0,0,1-2.28,3.9c-1.17,1.3-2.51,1.88-4,1.33a4,4,0,0,1-1.21-.7,1.58,1.58,0,0,1-.22.23,4.2,4.2,0,0,1-1.79.92,7.76,7.76,0,0,1-3.18.17,6.37,6.37,0,0,1-1.47-.44c0,.2,0,.43,0,.67s0,.69,0,.92c0,.83-.08,1.66-.16,2.45a10.06,10.06,0,0,1-.45,2.16,2.5,2.5,0,0,0-.09.25c-.5,1.54-1.4,4.29-5.66,3.38a6.2,6.2,0,0,1-4.31-2.5c-1-1.46-1.69-3.81-1.79-7.89Z" transform="translate(-25.24 -2.82)"/><path class="cls-1" d="M39.46,32.44c.1-2.07-.92-2.45-1.63-2.65.07-.11.17-.23.29-.38a7.72,7.72,0,0,0,1.2-1.93,7.93,7.93,0,0,1,.45-.84c.94-1.69,2.8-5,2.43-7.3-.26-1.63-1.5-2.7-4.59-2.38l0-.1a11.57,11.57,0,0,1,.72-1.58,11,11,0,0,1,9.53-6c6.31-.11,7.47,6.18,7.67,8.82a5.42,5.42,0,0,0-1-.49,8,8,0,0,0-1.73-.5,4.16,4.16,0,0,0-1.83.1,2.69,2.69,0,0,0-1.87,2.2c-1,4.52-.1,6.47.58,8a8.82,8.82,0,0,1,.6,1.52,8.43,8.43,0,0,1,.29.9l-.23,0a1.92,1.92,0,0,0-1.22.37,2.37,2.37,0,0,0-.82,1.11,3.31,3.31,0,0,0-.12,1.25c0,2,0,4,0,5.67a14.53,14.53,0,0,1-.39,3.29,4.13,4.13,0,0,1-1.07,1.66,3,3,0,0,1-2.78.47,4.82,4.82,0,0,1-2.53-1.18,4.41,4.41,0,0,1-1-2.42c-.13-.8-.32-2.19-.5-3.57-.21-1.68-.4-3.41-.45-4Zm14.83,1c-2.08-.43-2.29-.69-3-1.54a9,9,0,0,0-.77-.87.37.37,0,0,0-.24-.12.86.86,0,0,0-.5.17,1.27,1.27,0,0,0-.42.58.9.9,0,0,0,0,.77,4,4,0,0,0,2.63,1.69A5.5,5.5,0,0,0,54.34,34a2.4,2.4,0,0,0,.73-.31,3.16,3.16,0,0,0-.78-.24Zm.6-3.95a5.32,5.32,0,0,0,.48-.47,5.62,5.62,0,0,0,1.45-3.27,6,6,0,0,0,0-1.4,22.2,22.2,0,0,1-.1-4.51c0-.23,0-.41,0-.55s.15-5.76-3.11-9C56.53,9.35,66,7,65.51,17.48A50.17,50.17,0,0,1,62.4,29.57a12.36,12.36,0,0,1-1.89,3.29c-.56.62-1.14.93-1.7.72a2.43,2.43,0,0,1-1-.77Q56.42,31.1,54.89,29.48ZM43.28,9.19a12.66,12.66,0,0,0-5.87,5.57,11.39,11.39,0,0,0-.8,1.74,2.89,2.89,0,0,0-.23,1.14.43.43,0,0,1,0,.05,9.87,9.87,0,0,0,.18,2.09,15.4,15.4,0,0,1,.18,1.69,12.57,12.57,0,0,1-.14,1.89c-.2,1.67-.42,3.45.71,5.3l-.06.07c0,.06-.09.11-.13.16A35.52,35.52,0,0,1,33,19.54c-.93-3.38-1.08-6.13-.31-7.13a8.88,8.88,0,0,1,4.59-3.1A13.07,13.07,0,0,1,43.28,9.19ZM55.6,19.28c0,.16,0,.33,0,.49a23.92,23.92,0,0,0,.12,4.72,4.46,4.46,0,0,1,0,1.15,4.51,4.51,0,0,1-1.16,2.63,4,4,0,0,1-2.37,1.29l-.5,0a9.69,9.69,0,0,0-.33-1.05A15.44,15.44,0,0,0,50.75,27c-.62-1.37-1.41-3.13-.51-7.31a1.66,1.66,0,0,1,1.13-1.39,3,3,0,0,1,1.34-.06,6.64,6.64,0,0,1,1.48.43,12.57,12.57,0,0,1,1.41.63Zm-3.24-.46A2.16,2.16,0,0,0,51,19c-.2.12-.32.27-.3.45a.82.82,0,0,0,.35.46,1.1,1.1,0,0,0,.73.18h0a1.26,1.26,0,0,0,.68-.37.78.78,0,0,0,.26-.53c0-.17-.13-.31-.41-.38Zm-14.88-.76c2.51-.31,3.47.38,3.65,1.45.3,1.91-1.43,5-2.32,6.6a10.73,10.73,0,0,0-.5.95,4.64,4.64,0,0,1-.29.59,7.22,7.22,0,0,1-.32-4.17,14.42,14.42,0,0,0,.14-2.05,15,15,0,0,0-.19-1.81,11.12,11.12,0,0,1-.17-1.56Zm-.31,12.68.28.08c.38.11,1,.27.91,1.58a1.05,1.05,0,0,1-.46.14,5.87,5.87,0,0,1-1.44.07,7.88,7.88,0,0,1-2.6-.56,6.09,6.09,0,0,1-1.57-1c1.43.27,3.59.68,4.88-.3ZM38.5,18.82a.7.7,0,0,0,.24.48,1,1,0,0,0,.64.34,1,1,0,0,0,.57-.11c.22-.13.39-.3.39-.47s-.07-.23-.25-.34a2.09,2.09,0,0,0-.61-.19,1.9,1.9,0,0,0-.64,0C38.65,18.6,38.52,18.69,38.5,18.82ZM36.52,30c-.26.24-1.11.62-4,0a2,2,0,0,0-1.2,0,.72.72,0,0,0-.45.76,1.26,1.26,0,0,0,.26.65,6.28,6.28,0,0,0,2.24,1.63,9.09,9.09,0,0,0,3,.65,7.25,7.25,0,0,0,1.72-.08l.34-.09c.09.8.23,1.93.37,3.06.18,1.43.37,2.85.51,3.62a5.34,5.34,0,0,0,1.31,3,5.86,5.86,0,0,0,3.09,1.49,4.1,4.1,0,0,0,3.72-.7,5,5,0,0,0,1.37-2.1,14,14,0,0,0,.47-3.64c.06-1.26.08-2.75.07-4.29a5,5,0,0,0,2.51,1.22A6.52,6.52,0,0,0,54.6,35a3.23,3.23,0,0,0,1.32-.66,1.08,1.08,0,0,0,.35-.62A.89.89,0,0,0,56,33a3.12,3.12,0,0,0-1.46-.6c-1.68-.34-1.83-.53-2.31-1.15l-.39-.45a.22.22,0,0,0,0-.08,4.73,4.73,0,0,0,.53,0A4.89,4.89,0,0,0,54,30.1c.46.48,1.68,1.8,3,3.41a3.45,3.45,0,0,0,1.46,1.1,2.58,2.58,0,0,0,2.87-1A13.19,13.19,0,0,0,63.4,30a51.77,51.77,0,0,0,3.21-12.46c.64-12.95-12-8.77-14-8a8,8,0,0,0-4.74-1.28,12,12,0,0,0-2.7.33l-1-.28-.28-.06a14.13,14.13,0,0,0-7,.06,9.87,9.87,0,0,0-5.15,3.47c-1,1.27-.9,4.39.12,8.09A36.63,36.63,0,0,0,36.52,30Z" transform="translate(-25.24 -2.82)"/></svg>