<?xml version="1.0" encoding="utf-8"?>
<!-- Generator: Adobe Illustrator 24.1.3, SVG Export Plug-In . SVG Version: 6.00 Build 0)  -->
<svg version="1.1" id="Layer_1" xmlns="http://www.w3.org/2000/svg" xmlns:xlink="http://www.w3.org/1999/xlink" x="0px" y="0px"
	 viewBox="0 0 100.6 53" style="enable-background:new 0 0 100.6 53;" xml:space="preserve">
<style type="text/css">
	.st0{fill-rule:evenodd;clip-rule:evenodd;fill:#FFFFFF;}
	.st1{fill-rule:evenodd;clip-rule:evenodd;fill:#6A778F;}
</style>
<path class="st0" d="M21.2,0h53.1v53H21.2V0z"/>
<path class="st1" d="M35.3,36.7c0-0.1,0-0.2,0-0.3v-0.2H35H35c-0.9,0-1.7,0-2.6-0.2c-0.8-0.1-1.6-0.4-2.4-0.7
	c-1.2-0.5-2.2-1.3-3-2.3c-0.3-0.4-0.5-0.9-0.5-1.4c-0.1-0.9,0.4-1.7,1.2-2.1c0.7-0.2,1.4-0.2,2.1,0c1.1,0.2,1.9,0.4,2.4,0.5
	c-2-3.3-3.5-6.8-4.5-10.4c-1.3-4.5-1.3-8.5,0.1-10.1c1.8-2.3,4.3-3.9,7.1-4.5c2.9-0.6,5.9-0.5,8.8,0.3C44,5.2,44.4,5.1,44.8,5
	c0.6-0.1,1.3-0.1,1.9-0.1c1.1,0,2.3,0.1,3.4,0.4c0.7,0.2,1.4,0.5,2.1,0.9C56,5,69.9,1.3,69.1,16.7c-0.6,5-1.9,9.8-3.7,14.5
	c-0.6,1.6-1.5,3.1-2.6,4.4c-1.3,1.5-2.8,2.1-4.5,1.5c-0.5-0.2-1-0.4-1.4-0.8c-0.1,0.1-0.2,0.2-0.2,0.3c-0.6,0.5-1.3,0.9-2,1
	c-1.2,0.3-2.4,0.4-3.6,0.2c-0.6-0.1-1.1-0.3-1.7-0.5c0,0.2,0,0.5,0,0.8c0,0.3,0,0.8,0,1c0,0.9-0.1,1.9-0.2,2.8
	c-0.1,0.8-0.2,1.6-0.5,2.4c0,0.1-0.1,0.2-0.1,0.3c-0.6,1.7-1.6,4.8-6.4,3.8c-1.9-0.2-3.7-1.2-4.9-2.8C36.3,43.9,35.5,41.3,35.3,36.7
	L35.3,36.7z"/>
<path class="st0" d="M37.3,33.4c0.1-2.3-1-2.8-1.8-3c0.1-0.1,0.2-0.3,0.3-0.4c0.6-0.7,1-1.4,1.4-2.2c0.2-0.3,0.3-0.6,0.5-0.9
	c1.1-1.9,3.2-5.6,2.7-8.2c-0.3-1.8-1.7-3-5.2-2.7v-0.1c0.2-0.6,0.5-1.2,0.8-1.8c2.1-4.1,6.2-6.7,10.7-6.8c7.1-0.1,8.4,7,8.6,9.9
	c-0.4-0.2-0.7-0.4-1.1-0.6c-0.6-0.3-1.3-0.4-2-0.6c-0.7-0.1-1.4-0.1-2.1,0.1c-1.1,0.3-1.9,1.3-2.1,2.5c-1.1,5.1-0.1,7.3,0.7,9
	c0.3,0.5,0.5,1.1,0.7,1.7c0.1,0.3,0.2,0.7,0.3,1h-0.3c-0.5,0-1,0.1-1.4,0.4c-0.4,0.3-0.7,0.8-0.9,1.3c-0.1,0.5-0.2,0.9-0.1,1.4
	c0,2.3,0,4.5,0,6.4c0,1.2-0.2,2.5-0.4,3.7c-0.2,0.7-0.7,1.4-1.2,1.9c-0.9,0.7-2.1,0.9-3.1,0.5c-1.1-0.2-2.1-0.6-2.9-1.3
	c-0.6-0.8-1-1.7-1.1-2.7c-0.1-0.9-0.4-2.5-0.6-4C37.5,36.1,37.3,34.1,37.3,33.4L37.3,33.4z M54,34.5c-2.3-0.5-2.6-0.8-3.4-1.7
	c-0.3-0.3-0.6-0.7-0.9-1c-0.1-0.1-0.2-0.1-0.3-0.1c-0.2,0-0.4,0.1-0.6,0.2c-0.2,0.2-0.4,0.4-0.5,0.7c-0.1,0.3-0.1,0.6,0,0.9
	c0.7,1,1.8,1.7,3,1.9c0.9,0.1,1.8,0.1,2.6-0.1c0.3-0.1,0.6-0.2,0.8-0.3C54.6,34.7,54.3,34.6,54,34.5L54,34.5z M54.7,30.1
	c0.2-0.2,0.4-0.3,0.5-0.5c0.9-1,1.5-2.3,1.6-3.7c0.1-0.5,0.1-1.1,0-1.6c-0.2-1.7-0.2-3.4-0.1-5.1c0-0.3,0-0.5,0-0.6
	s0.2-6.5-3.5-10.1c3.3-1.1,14-3.7,13.4,8.1c-0.6,4.7-1.8,9.3-3.5,13.6c-0.5,1.3-1.2,2.6-2.1,3.7c-0.6,0.7-1.3,1-1.9,0.8
	c-0.4-0.2-0.8-0.5-1.1-0.9C56.9,32.5,55.8,31.3,54.7,30.1L54.7,30.1z M41.6,7.2c-2.8,1.3-5.2,3.5-6.6,6.3c-0.4,0.6-0.7,1.3-0.9,2
	c-0.2,0.4-0.3,0.8-0.3,1.3c0,0,0,0,0,0.1c0,0.8,0.1,1.6,0.2,2.4c0.1,0.6,0.2,1.3,0.2,1.9c0,0.7-0.1,1.4-0.2,2.1
	c-0.2,1.9-0.5,3.9,0.8,6l-0.1,0.1c0,0.1-0.1,0.1-0.1,0.2c-2-3.3-3.6-6.8-4.6-10.5c-1-3.8-1.2-6.9-0.3-8c1.3-1.7,3.1-2.9,5.2-3.5
	C37,6.7,39.3,6.7,41.6,7.2z M55.5,18.6c0,0.2,0,0.4,0,0.6c-0.1,1.8-0.1,3.6,0.1,5.3c0.1,0.4,0.1,0.9,0,1.3c-0.1,1.1-0.6,2.1-1.3,3
	c-0.7,0.8-1.6,1.3-2.7,1.5h-0.6c-0.1-0.4-0.2-0.8-0.4-1.2c-0.2-0.6-0.4-1.1-0.7-1.7c-0.7-1.5-1.6-3.5-0.6-8.2
	c0.1-0.7,0.6-1.3,1.3-1.6c0.5-0.1,1-0.2,1.5-0.1c0.6,0.1,1.1,0.3,1.7,0.5C54.4,18.1,55,18.3,55.5,18.6L55.5,18.6z M51.8,18
	c-0.5-0.1-1.1,0-1.5,0.2c-0.2,0.1-0.4,0.3-0.3,0.5c0.1,0.2,0.2,0.4,0.4,0.5c0.2,0.2,0.5,0.2,0.8,0.2l0,0c0.3-0.1,0.6-0.2,0.8-0.4
	c0.2-0.2,0.3-0.4,0.3-0.6C52.2,18.3,52.1,18.1,51.8,18L51.8,18z M35,17.2c2.8-0.3,3.9,0.4,4.1,1.6c0.3,2.2-1.6,5.6-2.6,7.4
	c-0.2,0.3-0.4,0.7-0.6,1.1c-0.1,0.2-0.2,0.5-0.3,0.7c-0.6-1.5-0.7-3.1-0.4-4.7c0.1-0.8,0.2-1.5,0.2-2.3c0-0.7-0.1-1.4-0.2-2
	C35.1,18.4,35.1,17.8,35,17.2z M34.7,31.5l0.3,0.1c0.4,0.1,1.1,0.3,1,1.8c-0.2,0.1-0.3,0.1-0.5,0.2c-0.5,0.1-1.1,0.1-1.6,0.1
	c-1,0-2-0.3-2.9-0.6c-0.6-0.3-1.2-0.7-1.8-1.1C30.8,32.1,33.2,32.6,34.7,31.5L34.7,31.5z M36.2,18c0,0.2,0.1,0.4,0.3,0.5
	c0.2,0.2,0.4,0.4,0.7,0.4c0.2,0,0.4,0,0.6-0.1c0.2-0.1,0.4-0.3,0.4-0.5s-0.1-0.3-0.3-0.4c-0.2-0.1-0.4-0.2-0.7-0.2
	c-0.2,0-0.5,0-0.7,0C36.4,17.8,36.2,17.9,36.2,18z M34,30.6c-0.3,0.3-1.3,0.7-4.5,0c-0.4-0.1-0.9-0.1-1.4,0
	c-0.3,0.1-0.6,0.5-0.5,0.9c0,0.3,0.1,0.5,0.3,0.7c0.7,0.8,1.6,1.4,2.5,1.8c1.1,0.4,2.2,0.7,3.4,0.7c0.6,0,1.3,0,1.9-0.1l0.4-0.1
	c0.1,0.9,0.3,2.2,0.4,3.5c0.2,1.6,0.4,3.2,0.6,4.1c0.1,1.3,0.6,2.4,1.5,3.4c1,0.9,2.2,1.5,3.5,1.7c1.4,0.4,3,0.1,4.2-0.8
	c0.7-0.6,1.2-1.5,1.5-2.4c0.4-1.3,0.5-2.7,0.5-4.1c0.1-1.4,0.1-3.1,0.1-4.8c0.8,0.7,1.8,1.2,2.8,1.4c1,0.2,2.1,0.1,3.1-0.2
	c0.5-0.1,1.1-0.4,1.5-0.7c0.2-0.2,0.3-0.4,0.4-0.7c0-0.3-0.1-0.6-0.3-0.8c-0.5-0.4-1-0.6-1.6-0.7c-1.9-0.4-2.1-0.6-2.6-1.3l-0.4-0.5
	c0,0,0-0.1,0-0.1c0.2,0,0.4,0,0.6,0c0.6-0.1,1.3-0.4,1.8-0.7c0.5,0.5,1.9,2,3.4,3.8c0.4,0.6,1,1,1.6,1.2c1.2,0.4,2.5-0.1,3.2-1.1
	c1-1.2,1.8-2.6,2.3-4.1c1.8-4.5,3-9.2,3.6-14.1c0.7-14.6-13.5-9.9-15.8-9c-1.6-1-3.5-1.5-5.3-1.4c-1,0-2,0.1-3,0.4l-1.1-0.3
	l-0.3-0.1c-2.6-0.6-5.3-0.6-7.9,0.1c-2.3,0.6-4.3,2-5.8,3.9c-1.1,1.4-1,5,0.1,9.1C29.9,23.3,31.6,27.1,34,30.6z"/>
</svg>
