<svg id="Layer_1" data-name="Layer 1" xmlns="http://www.w3.org/2000/svg" viewBox="0 0 14 23.98"><path d="M14.5,15H16v9l-4-3L8,24V15H9.46A3.74,3.74,0,0,0,14.5,15ZM12,3c-5.19-.07-5.19,8.07,0,8S17.19,2.93,12,3Zm6.93,5.28c.42,1.92-2,1.8-2.11,3.67a1.46,1.46,0,0,1-1.41,1c-1.88-.49-2.52,1.79-4.29.8C9.93,12.27,8,13.75,7.18,12,7,10.16,5.25,10.39,5,8.72c.3-1.47.72-1.55.07-3-.42-1.93,2-1.8,2.11-3.67a1.49,1.49,0,0,1,1.42-1c1.85.51,2.52-1.77,4.28-.79,1.19,1.46,3.11,0,3.94,1.78C17,3.84,18.75,3.61,19,5.28,18.7,6.75,18.28,6.83,18.93,8.28ZM17,7C17.1.51,6.9.51,7,7,6.91,13.49,17.1,13.49,17,7Z" transform="translate(-5 -0.02)"/></svg>