<?xml version="1.0" encoding="utf-8"?>
<!-- Generator: Adobe Illustrator 24.1.3, SVG Export Plug-In . SVG Version: 6.00 Build 0)  -->
<svg version="1.1" id="Layer_1" xmlns="http://www.w3.org/2000/svg" xmlns:xlink="http://www.w3.org/1999/xlink" x="0px" y="0px"
	 viewBox="0 0 100.6 53" style="enable-background:new 0 0 100.6 53;" xml:space="preserve">
<style type="text/css">
	.st0{fill-rule:evenodd;clip-rule:evenodd;fill:#00678C;}
	.st1{fill-rule:evenodd;clip-rule:evenodd;fill:#CE8B2C;}
</style>
<path class="st0" d="M15,27.3c-0.6,0-1.3,0-1.8,0.3c-0.1,0-0.4,0-0.4,0.2c0,0.2,0.1,0.2,0.1,0.3c0.1,0.2,0.3,0.4,0.5,0.6l0.6,0.4
	c0.4,0.2,0.8,0.4,1.2,0.6c0.2,0.1,0.4,0.3,0.6,0.5c0.1,0.1,0.2,0.2,0.3,0.2l0,0c-0.1-0.1-0.1-0.2-0.2-0.3l-0.3-0.3
	c-0.3-0.4-0.6-0.7-1-1c-0.3-0.2-1-0.5-1.1-0.8l0,0c0.2,0,0.4-0.1,0.7-0.2c0.3-0.1,0.6-0.1,1-0.2l0.5-0.1v-0.1
	c-0.2-0.2-0.3-0.4-0.5-0.6c-0.5-0.4-1-0.8-1.6-1.2c-0.3-0.2-0.7-0.3-1-0.5c-0.1-0.1-0.3-0.1-0.4-0.2c-0.1-0.2-0.3-0.5-0.4-0.7
	L11,22.6c-0.1-0.4-0.3-0.7-0.5-1.1c-0.9-1.5-2.1-2.7-3.7-3.6c-0.4-0.2-0.8-0.3-1.2-0.4H5c-0.2-0.1-0.3-0.2-0.4-0.3
	c-0.5-0.3-1.9-1.1-2.3-0.1c-0.3,0.6,0.4,1.2,0.6,1.5c0.2,0.2,0.3,0.5,0.5,0.7c0.1,0.2,0.1,0.3,0.2,0.5L4,21.2
	c0.1,0.2,0.2,0.4,0.4,0.6c0.1,0.1,0.2,0.2,0.2,0.3c-0.1,0.2-0.2,0.5-0.2,0.7C4.1,23.9,4.2,25,4.7,26c0.2,0.2,0.6,0.8,1,0.6
	c0.4-0.2,0.3-0.7,0.5-1.2c0-0.1,0-0.2,0.1-0.3l0,0l0.4,0.8c0.3,0.5,0.7,0.9,1.2,1.3c0.2,0.2,0.4,0.5,0.7,0.6l0,0l0,0
	c-0.1-0.1-0.1-0.1-0.2-0.2c-0.2-0.2-0.3-0.4-0.5-0.6c-0.4-0.5-0.8-1.1-1.1-1.7c-0.2-0.3-0.3-0.6-0.4-0.9C6.1,24,6.3,24,6.1,24
	c-0.2,0.2-0.3,0.4-0.5,0.6c-0.2,0.5-0.2,0.9-0.3,1.4C5,26,4.9,25.7,4.8,25.4c-0.3-0.8-0.3-1.7-0.1-2.5c0.1-0.2,0.3-0.8,0.2-1
	c-0.1-0.2-0.2-0.3-0.4-0.4c-0.1-0.2-0.3-0.4-0.3-0.6c-0.2-0.6-0.3-1.1-0.6-1.7c-0.1-0.3-0.3-0.5-0.5-0.7C3,18.2,2.9,18,2.7,17.7
	c-0.1-0.1-0.1-0.3,0-0.4c0-0.1,0.1-0.1,0.1-0.1c0.1-0.1,0.5,0,0.6,0.1c0.3,0.1,0.6,0.3,0.9,0.5c0.1,0.1,0.3,0.2,0.4,0.3H5
	c0.3,0.1,0.6,0,0.9,0.1c0.5,0.2,0.9,0.4,1.4,0.7c1.3,0.8,2.3,1.9,3,3.2c0.1,0.2,0.2,0.4,0.3,0.6l0.6,1.4c0.2,0.4,0.4,0.9,0.7,1.3
	c0.1,0.2,0.7,0.3,1,0.4c0.3,0.1,0.5,0.2,0.7,0.3l1,0.6c0.1,0.1,0.6,0.4,0.7,0.5L15,27.3z"/>
<path class="st0" d="M5.3,19c-0.1,0-0.3,0-0.4,0l0,0c0.1,0.1,0.2,0.3,0.3,0.4l0.2,0.5l0,0c0.1-0.1,0.2-0.3,0.2-0.5
	c0-0.1,0-0.1-0.1-0.2C5.4,19.1,5.3,19,5.3,19L5.3,19z"/>
<path class="st1" d="M55.6,29.7h8.1c0.9,0,1.8-0.2,2.6-0.5c1.1-0.3,1.8-1.3,1.8-2.4v-2c0-0.8-0.7-1.6-2-2.1
	c-0.8-0.3-1.6-0.4-2.4-0.4h-3.4c-1.2,0-1.7-0.3-1.8-1.1c0-0.1,0-0.2,0-0.3v-1.3c0-0.1,0-0.2,0-0.2c0.2-0.6,0.5-0.7,1.4-0.9h8.3v-1.9
	h-7.9c-0.8,0-1.5,0-2.3,0.2c-1.7,0.5-2.4,1.3-2.4,2.8v1.7c0,1.3,1.4,2.4,3.9,2.6c0.3,0,0.5,0,0.8,0h2.9c0.1,0,0.2,0,0.3,0
	c0.9,0.1,1.3,0.2,1.5,0.6c0.2,0.1,0.2,0.3,0.2,0.5v1.6c0,0.3-0.2,0.5-0.4,0.7c-0.3,0.3-0.8,0.4-1.2,0.4h-0.3h-7.9V29.7z M85.8,26.5
	c0,1.9,1.5,3,4.4,3.2H91h7.4v-1.8h-7.4c-1.7,0-2.3-0.5-2.3-1.4v-9.8h-2.9L85.8,26.5L85.8,26.5z M69.9,26.5v-6.7
	c0-1.7,1.2-2.8,3.6-3.1h0.8h5.4c0.3,0,0.5,0,0.8,0c2.4,0.3,3.6,1.4,3.6,3.1v6.7c0.1,1.2-0.6,2.3-1.7,2.6l2.7,2.5h-3.2l-2.3-2
	l-2.3,0.1h-3c-0.6,0-1.1-0.1-1.7-0.2C70.8,29.1,69.9,28.1,69.9,26.5L69.9,26.5z M73,26.4c0,0.1,0,0.2,0.1,0.3c0.2,0.8,0.9,1.2,2,1.2
	h2.6l-2.4-2.1h3.3l2.1,1.9c0.4-0.2,0.6-0.5,0.7-0.9c0-0.1,0-0.2,0-0.3V20c0-0.1,0-0.2,0-0.3c-0.2-0.7-0.9-1.2-2-1.2h-4.2
	c-1.2,0-2.1,0.5-2.1,1.4L73,26.4z"/>
<path class="st0" d="M17.9,29.7h2.8V18.6l4.4,9.7c0.4,1.1,1.5,1.8,2.6,1.6c1.1,0.2,2.2-0.5,2.6-1.6l4.4-9.7v11.2h2.8V18.6
	c0.1-0.9-0.5-1.7-1.3-1.9C34.1,16,32.6,16.6,32,18l-4.3,9.6L23.5,18c-0.6-1.4-2.1-2-4.2-1.4c-0.9,0.2-1.4,1-1.3,1.9L17.9,29.7z
	 M39.9,20.7h2.8v6.1c0,0.3,0.1,1.1,1.7,1.2h6.1v-7.4h2.9v10c0,2.5-3.1,3-4.5,3h-9v-1.9h9c1.8-0.2,1.6-1.1,1.6-1.4v-0.7h-6
	c-2.8,0-4.6-1.2-4.6-2.7L39.9,20.7z"/>
</svg>
