<svg id="Layer_1" data-name="Layer 1" xmlns="http://www.w3.org/2000/svg" viewBox="0 0 100.6 53"><defs><style>.cls-1{fill:#fff;}.cls-2{fill:#a00403;}.cls-3{fill:#b11205;}.cls-4{fill:#9f0d02;}.cls-5{fill:#891102;}.cls-6{fill:#aa1401;}.cls-7{fill:#9e1209;}.cls-8{fill:#900e04;}.cls-9{fill:#8b1104;}</style></defs><rect class="cls-1" x="23.8" width="53" height="53" rx="7.95"/><path class="cls-2" d="M66,41.13l2.16-26.68L59.83,30.74,39.54,43c8.37-.59,17.72-1.23,26.47-1.83Z"/><path class="cls-3" d="M67.63,18.53,56.92,10.14l-2.79,9.63C65.5,20.74,63.63,18.77,67.63,18.53Zm-24,10.66,14.08,4.45L54.13,19.77Zm-9.21,2c4.56,14.39,5.7,17.49,9.21-2l-9.31,2.18ZM52.37,7l10,.1-5.49,3C55.79,9.42,53.2,7.66,52.37,7ZM32.6,25.46l-.42,10.25,2.39-4.45Zm22-16.66c6.2,5.92-14.76,26.18-20.4,20.39C28.09,23.18,49,2.92,54.65,8.8Z"/><path class="cls-4" d="M43.67,29.19l13.77,4.45c-5,4.66-14.23,9-17.91,9.32Z"/><path class="cls-5" d="M54.13,19.77l3.42,13.77c4.14-4.35,7.86-9.11,9.73-14.91ZM66,41.13,63.86,25.36l-6.31,8.18Z"/><path class="cls-6" d="M67.38,18.74c1.35-4.25,1.66-10.46-5-11.6l-5.49,3Z"/><path class="cls-7" d="M32.18,35.71c.21,7,5.18,7.15,7.35,7.25l-5.07-11.7Z"/><path class="cls-8" d="M43.67,29.19l5.59,10.66a31.6,31.6,0,0,0,8.18-6.31Z"/><path class="cls-9" d="M34.46,31.26l-.83,9.42c1.45,2.07,3.52,2.18,5.7,2.07C37.77,38.92,34.67,31.16,34.46,31.26Z"/></svg>